<svg fill="none" height="100" viewBox="0 0 500 100" width="500" xmlns="http://www.w3.org/2000/svg"><path d="m455.9 43.8001c-.5-.4-.9-.6-1.1-.7z" fill="#00a94f"/><path d="m54.1056 41.3495 2.5095-14.0534h-53.9048l-2.7103 15.5591h18.4702l-9.53625 53.3026h18.16905l9.4359-53.3026h17.2656zm48.9864 23.1881c7.528-3.1118 10.54-11.042 10.54-18.169 0-3.1119-.502-5.9225-1.807-8.7332-1.907-4.3164-4.919-7.0267-8.532-8.5325-3.5138-1.5057-7.5291-1.8068-11.6447-1.8068h-28.6087l-12.1462 68.8617h18.169l4.5172-25.6977c2.108 0 4.1156-.1004 6.1233-.1004 2.6099 0 4.5171.3012 5.8221.8031 2.0076.803 2.8107 1.7065 3.413 3.4129.6023 1.7065.7026 4.1157.7026 7.1271v4.5172c0 3.0114.3012 5.7217 1.1042 8.6328l.3012 1.305h19.876l-1.105-2.5096c-2.409-5.521-2.308-10.0381-2.61-16.4625-.2-3.9149-.301-7.2275-2.007-10.0382-.603-1.0038-1.406-1.8068-2.409-2.5095.1 0 .2-.1004.301-.1004zm-10.4399-10.6404c-1.4054 1.0038-4.9187 1.2045-7.3279 1.2045-3.0114 0-5.9225-.1003-8.9339-.1003l2.2084-12.5477h10.54c1.9073 0 3.7141.4015 4.718 1.1042 1.1042.7026 1.7064 1.6061 1.7064 3.6137 0 2.8107-.9034 5.521-2.911 6.7256zm88.3359-26.6011h-18.169l-6.224 35.6354c-.803 4.7179-1.606 9.5362-3.513 12.8488-1.908 3.3126-4.417 5.4206-9.938 5.521-2.911 0-5.32-.6023-7.027-1.8069-1.606-1.2045-2.61-2.911-2.61-5.9225 0-3.0114.603-6.2236 1.205-9.4358l6.525-36.84h-18.169l-6.124 34.4308c-.702 4.216-1.405 8.5324-1.405 12.9492 0 6.0229 1.707 10.9416 4.818 14.6557 3.213 3.7141 7.83 6.1233 13.351 7.3279 2.911.7026 6.023 1.2045 9.135 1.2045 3.915 0 8.231-.7026 12.046-2.0076 6.926-2.5095 11.343-6.6252 14.053-11.7446 2.71-5.1195 3.915-11.042 5.019-17.2656l-1.706-.3012 1.706.3012z" fill="#00703c"/><path d="m455.9 37.5c-.5-.4-.9-.6-1.1-.7z" fill="#00a94f"/><path d="m211.504 58.314-1.807 10.8412h20.377c-.803 4.6175-2.71 8.432-5.32 11.1423-3.212 3.413-7.729 5.4206-13.852 5.521-6.425 0-10.44-2.108-13.351-5.521-2.811-3.4129-4.317-8.432-4.317-14.5553 0-7.1271 2.209-14.3545 6.324-19.6747 4.116-5.3203 9.737-8.7332 17.266-8.7332 3.313 0 6.324.7026 8.733 2.0076 2.409 1.4053 4.216 3.3126 5.421 6.4244.502 1.4054.803 2.8107 1.104 4.5172l.402 2.7103 2.71-.2008 9.436-.6023-.603-3.3126c-.602-3.6137-1.405-7.127-3.613-10.8412-5.12-8.432-14.254-11.9453-23.188-11.9453h-.904c-11.142 0-20.277 4.9186-26.3 12.4473-6.023 7.4282-9.235 17.3659-9.235 27.5045 0 5.2198 1.305 10.4396 3.413 15.0572 4.919 10.54 14.656 16.1614 25.898 16.1614h.302c5.019 0 10.439-1.305 15.057-4.0153l-.602 2.9111h11.443l7.027-37.9442h-31.821zm81.208 20.3774c-.1-1.8068-.1-4.3164-.401-6.8259s-1.004-5.3202-3.012-7.5286c-.401-.4015-.803-.8031-1.104-1.1042 2.209-1.2046 4.317-2.7103 6.023-4.5172 3.212-3.3126 5.12-8.0305 5.019-13.6519.101-6.2236-2.81-11.1423-7.026-13.953-4.217-2.8107-9.336-3.8145-14.556-3.8145h-22.987l-11.946 68.9621h12.046l5.019-28.3076h6.826 1.004c2.51 0 5.421.1004 7.729.6023 2.41.6023 3.815 1.5057 4.417 3.0115.201.3011.502 1.7064.602 3.1118.201 1.4053.201 2.911.302 4.0152.301 5.1195.301 10.4397 2.81 15.8603l.803 1.7065h12.749l-1.606-4.0153c-1.908-4.7179-2.409-8.3316-2.711-13.5515zm-8.833-25.9988c-2.008 2.108-4.216 3.1119-7.027 3.7142-2.811.6022-5.922.7026-9.235.7026-1.907 0-3.915 0-5.922-.1004l3.212-18.8717h3.714 6.023 1.505c3.213 0 6.224.5019 8.031 1.6061.903.5019 1.506 1.1042 2.008 1.9073.502.803.803 2.0076.803 3.7141-.101 2.9111-1.105 5.2198-3.112 7.3278zm36.438-14.3545h31.62l.502-2.4092 1.707-8.6328h-43.967l-12.046 68.9621h45.674l1.706-11.042h-33.327l3.213-18.2694h30.315l1.907-10.9416h-30.416zm50.191 0h31.62l.502-2.4092 1.707-8.6328h-43.967l-12.046 68.9621h45.673l1.707-11.042h-33.327l3.212-18.2694h30.316l2.007-10.9416h-30.415zm80.104 57.9201 9.035-52.901-2.409-.8031c-1.606-.5019-3.213-1.2046-4.919-2.108l-3.614-1.9072-5.722 32.7243c-.2 1.305-.401 2.6099-.602 4.0153-.903-2.2084-1.907-4.5172-2.911-6.7256l-18.972-41.2568h-10.64l-11.946 68.9621h11.845l7.93-45.9747c.101-.4015.101-.8031.201-1.2046.703 1.6061 1.405 3.3126 2.108 4.9187l19.374 42.2606" fill="#00b259"/><path d="m473.198 37.2338c0-.1004 0-.1004 0 0 .602-.3012 1.205-.6023 1.807-.9034.1-.1004.201-.1004.401-.2008.603-.3012 1.305-.7027 1.908-1.1042-.201-.1004-7.93-3.0114-10.842-7.7294.904.5019 7.629 3.2122 15.861 3.9149l.2-.2008c2.41-2.3087 4.417-4.4167 5.823-6.2236 0 0-6.023-1.2046-10.139-4.5172.803.2008 7.027 1.1042 13.953-.4015 1.205-1.8069 2.409-3.6137 3.313-5.4206l1.305-2.5095c3.814-7.22749 3.814-10.84122 1.907-9.63665-8.031 5.11946-20.478-1.00381-29.311.40153-19.474 3.01144-23.691 17.76752-24.594 23.89082-.401.4015-.903.803-1.205 1.2045-1.104 1.1042-2.308 2.3088-3.513 3.5134-4.818 4.9187-5.32 6.0229-5.019 7.1271.1.4015.301 1.9072.502 2.2084 1.506-2.4092 4.417-6.3241 9.436-10.6405 6.725-6.2236 17.968-14.0534 33.126-16.4625 0 0-22.787 8.6328-30.315 19.2732 7.026 5.7218 14.555 7.2275 21.381 5.8221 0 0 .803-.2007 1.807-.4015.702-.4015 1.505-.7027 2.208-1.0038z" fill="#00703c"/></svg>